<?xml version="1.0" encoding="UTF-8"?> <svg xmlns="http://www.w3.org/2000/svg" xmlns:xlink="http://www.w3.org/1999/xlink" width="310" height="119" viewBox="0 0 310 119"><defs><clipPath id="clip-path"><rect id="Rectangle_6" data-name="Rectangle 6" width="303.234" height="118.361" transform="translate(0 0)" fill="none"></rect></clipPath></defs><g id="Group_12" data-name="Group 12" transform="translate(-2202 -453)"><rect id="Rectangle_7" data-name="Rectangle 7" width="310" height="119" transform="translate(2202 453)" fill="rgba(255,255,255,0)"></rect><g id="Group_11" data-name="Group 11" transform="translate(2203 453)"><g id="Group_10" data-name="Group 10" clip-path="url(#clip-path)"><path id="Path_22" data-name="Path 22" d="M84.64,110.27a6.206,6.206,0,0,0,6.449-6.5,6.45,6.45,0,1,0-12.9,0,6.2,6.2,0,0,0,6.447,6.5m0-1.231a5.016,5.016,0,0,1-5.215-5.269,5.22,5.22,0,1,1,10.432,0,5.019,5.019,0,0,1-5.217,5.269M104.205,97.4v12.687h1.26v-7.4a4.214,4.214,0,0,1,4.187-4.239,4.072,4.072,0,0,1,2.158.59l.564-1.026a4.964,4.964,0,0,0-2.722-.746,4.462,4.462,0,0,0-4.212,2.39l-.051-2.26Zm29.251.924a6.448,6.448,0,0,0-3.6-1.156c-3.288,0-5.959,2.234-5.959,6.192a5.819,5.819,0,0,0,5.959,6.137c2.365,0,4.805,1.082,4.805,3.8,0,2.7-2.262,3.828-4.805,3.828s-4.751-1.233-4.751-3.828h-1.26c0,3.21,2.647,5.06,6.011,5.06s6.037-1.645,6.037-5.06a4.654,4.654,0,0,0-3.466-4.548,6.245,6.245,0,0,0,1.846-9.71l1.236-1.438-.824-.718Zm-3.6.1a4.564,4.564,0,0,1,4.754,4.933,4.871,4.871,0,0,1-4.754,4.881,4.653,4.653,0,0,1-4.7-4.881c0-3.316,2.108-4.933,4.7-4.933M159.6,97.4v2.771a5.756,5.756,0,0,0-5.19-2.924,6.524,6.524,0,0,0,0,13.047,5.928,5.928,0,0,0,5.19-2.9v2.7h1.26V97.4Zm-5.19,1.052c7.063,0,7.063,10.609,0,10.609a5.306,5.306,0,0,1,0-10.609m20.08-1.052v12.687h1.259v-7.063a4.411,4.411,0,0,1,4.446-4.624c2.746-.024,4.521,1.517,4.521,4.394v7.293h1.256v-7.317c0-3.523-2.338-5.6-5.726-5.6a5.055,5.055,0,0,0-4.524,2.492V97.4Zm26.245,12.687h-1.26V97.347h1.26Zm-1.616-16.825a1.014,1.014,0,0,0,2.027,0,1.014,1.014,0,0,0-2.027,0M224.1,107.469a5.377,5.377,0,0,1-3.775,1.57,5.293,5.293,0,1,1,0-10.586,5.376,5.376,0,0,1,3.8,1.516l.822-.8a6.6,6.6,0,0,0-4.624-1.9,6.474,6.474,0,1,0,0,12.948,6.5,6.5,0,0,0,4.624-1.9Z" fill="#83746c"></path><path id="Path_23" data-name="Path 23" d="M27.725,78.028a14.982,14.982,0,0,1-10.486,4.263c-9.673,0-14.654-6.8-14.746-14.653C2.441,59.592,7.47,52.7,17.239,52.7a14.661,14.661,0,0,1,10.438,4.259l1.772-1.531A17.25,17.25,0,0,0,17.239,50.4C5.747,50.4-.095,58.779,0,67.733c.048,9.049,5.938,16.951,17.238,16.951a17.26,17.26,0,0,0,12.21-5.03ZM54.1,50.256c-11.3,0-16.9,8.234-16.9,17.238,0,8.859,5.65,17.381,16.9,17.381S70.95,76.4,71,67.589c.044-9.05-5.6-17.333-16.9-17.333m0,2.4c9.621,0,14.409,7.133,14.409,14.891,0,7.565-4.835,14.938-14.409,14.938-9.528,0-14.317-7.373-14.365-14.938-.047-7.9,4.741-14.891,14.365-14.891m52.129,25.377A14.984,14.984,0,0,1,95.74,82.291c-9.673,0-14.65-6.8-14.746-14.653C80.946,59.592,85.972,52.7,95.74,52.7a14.668,14.668,0,0,1,10.439,4.259l1.77-1.531A17.248,17.248,0,0,0,95.74,50.4c-11.492,0-17.334,8.379-17.238,17.333.048,9.049,5.938,16.951,17.238,16.951a17.258,17.258,0,0,0,12.209-5.03ZM132.6,50.256c-11.3,0-16.905,8.234-16.905,17.238,0,8.859,5.653,17.381,16.905,17.381s16.853-8.477,16.9-17.286c.048-9.05-5.6-17.333-16.9-17.333m0,2.4c9.625,0,14.413,7.133,14.413,14.891,0,7.565-4.836,14.938-14.413,14.938-9.528,0-14.316-7.373-14.365-14.938-.048-7.9,4.74-14.891,14.365-14.891M183.581,56c-3.3-4.929-7.473-5.7-12.261-5.7-5.506,0-12.878,2.2-12.734,9.289,0,6.179,6.271,7.421,12.4,8.619,5.505,1.054,11.059,2.155,11.012,7.181,0,5.938-6.56,7.088-10.679,7.088s-9.384-2.011-11.444-6.082l-2.3,1.149c2.586,5.125,8.524,7.281,13.741,7.281,5.6,0,13.215-1.823,13.263-9.385,0-7.232-6.7-8.382-13.166-9.624-5.651-1.054-10.247-2.06-10.247-6.32,0-5.365,6.223-6.8,10.15-6.8,3.783.047,7.709.62,10.153,4.547Zm25.078-5.746c-11.3,0-16.9,8.234-16.9,17.238,0,8.859,5.649,17.381,16.9,17.381s16.853-8.477,16.9-17.286c.047-9.05-5.606-17.333-16.9-17.333m0,2.4c9.62,0,14.409,7.133,14.409,14.891,0,7.565-4.836,14.938-14.409,14.938-9.529,0-14.317-7.373-14.365-14.938-.048-7.9,4.74-14.891,14.365-14.891m26.176-1.915V84.3h21.453V81.858H237.423V50.736Zm32.07,0h-2.536V84.3H266.9ZM302.228,56c-3.3-4.929-7.468-5.7-12.257-5.7-5.509,0-12.882,2.2-12.738,9.289,0,6.179,6.275,7.421,12.4,8.619,5.505,1.054,11.063,2.155,11.015,7.181,0,5.938-6.56,7.088-10.679,7.088s-9.384-2.011-11.444-6.082l-2.3,1.149c2.585,5.125,8.523,7.281,13.744,7.281,5.6,0,13.216-1.823,13.263-9.385,0-7.232-6.7-8.382-13.167-9.624-5.649-1.054-10.25-2.06-10.25-6.32,0-5.365,6.227-6.8,10.154-6.8,3.783.047,7.709.62,10.15,4.547Z" fill="#83746c"></path><path id="Path_24" data-name="Path 24" d="M154.028,23.6c-2.656-9.958-13.98-11.78-18.522-16.033a20.281,20.281,0,0,0,1.1,13.229" fill="none" stroke="#ecceb1" stroke-miterlimit="22.926" stroke-width="2.126"></path><path id="Path_25" data-name="Path 25" d="M153.843,33.041c-3.655-12.988-20.828-12.123-29.306-14.76.7,18.5,29.975,21.57,29.993,20.726M148.55,15.33c1-6.728,3.584-9.265,5.472-13.023,2.324,4.335,6.219,6.669,6.628,12.435" fill="none" stroke="#ecceb1" stroke-linecap="round" stroke-miterlimit="22.926" stroke-width="2.126"></path><path id="Path_26" data-name="Path 26" d="M152.635,30.029c2.657-17.684,15.374-18.209,19.915-22.458a20.31,20.31,0,0,1-1.1,13.229m-18.11,18.209c-.38-19.247,20.386-17.735,29.993-20.729C182.631,36.781,153.356,39.853,153.338,39.009Z" fill="none" stroke="#ecceb1" stroke-miterlimit="22.926" stroke-width="2.126"></path></g></g></g></svg> 